<svg xmlns="http://www.w3.org/2000/svg" width="49.5" height="54.011" viewBox="0 0 49.5 54.011"><g id="viber" transform="translate(-1.505 .75)"><g id="Group_1" data-name="Group 1" fill="#fff" stroke="#fff" stroke-width="1.5"><path id="Path_1" data-name="Path 1" d="M31.256 0h-10a19.018 19.018 0 00-19 19v9.01a19.032 19.032 0 0012 17.665v5.841a1 1 0 001.671.741L21.725 47h9.531a19.018 19.018 0 0019-19v-9.01a19.018 19.018 0 00-19-18.99zm17 28a17.016 17.016 0 01-17 17h-9.917a1 1 0 00-.671.259l-4.413 4v-4.282a1 1 0 00-.667-.942A17.031 17.031 0 014.255 28v-9.01A17.016 17.016 0 0121.254 2h10a17.016 17.016 0 0117 17z"/><path id="Path_2" data-name="Path 2" d="M39.471 30.493L33.325 26.5a2.993 2.993 0 00-4.15.88l-.289.444c-2.66-.879-5.593-2-7.349-7.085l.727-.632h0a3 3 0 00.294-4.233l-4.808-5.53a1 1 0 00-1.411-.1l-3.019 2.625c-2.648 2.3-1.411 5.707-1 6.826a.994.994 0 00.066.145 45.694 45.694 0 006.661 8.786c4.065 4.141 11.4 7.965 11.629 8.076a5 5 0 006.916-1.47l2.178-3.354a1 1 0 00-.299-1.385zm-3.561 3.649a3.033 3.033 0 01-4.233.834c-.073-.038-7.364-3.835-11.207-7.75a44.639 44.639 0 01-6.3-8.291c-.792-2.221-.652-3.586.464-4.556l2.266-1.968 4.152 4.776a.989.989 0 01-.1 1.411l-1.227 1.066a1 1 0 00-.3 1.049c2.092 6.8 6.16 8.133 9.13 9.108l.433.143a1 1 0 001.155-.4l.709-1.092a.994.994 0 011.383-.291l5.308 3.447z"/><path id="Path_3" data-name="Path 3" d="M28.538 16.247a1 1 0 10-.548 1.923 4.524 4.524 0 013.1 3.1 1 1 0 00.962.729 1.024 1.024 0 00.272-.037 1 1 0 00.691-1.234 6.538 6.538 0 00-4.477-4.481z"/><path id="Path_4" data-name="Path 4" d="M36.148 22.219a1.024 1.024 0 00.272-.037 1 1 0 00.691-1.234 12.7 12.7 0 00-8.689-8.709 1 1 0 00-.547 1.924 10.685 10.685 0 017.311 7.328 1 1 0 00.962.728z"/><path id="Path_5" data-name="Path 5" d="M27.991 7.582a1 1 0 00-.548 1.924 18.1 18.1 0 0112.388 12.416 1 1 0 00.962.729 1.024 1.024 0 00.272-.037 1 1 0 00.691-1.234A20.118 20.118 0 0027.991 7.582z"/></g></g></svg>