<?xml version="1.0" encoding="utf-8"?><svg xmlns="http://www.w3.org/2000/svg" width="25.212" height="25.346" viewBox="0 0 25.212 25.346"><g fill="#fff" stroke="#fff"><path data-name="Path 6" d="M18.219 14.95l-.009.075c-2.2-1.1-2.429-1.242-2.713-.816-.2.3-.771.964-.944 1.162s-.349.21-.646.075a8.116 8.116 0 01-2.4-1.485 9.073 9.073 0 01-1.66-2.07c-.293-.506.32-.578.878-1.634a.55.55 0 00-.025-.524c-.075-.15-.672-1.62-.922-2.206s-.487-.51-.672-.51a1.488 1.488 0 00-1.368.344c-1.614 1.774-1.207 3.6.174 5.55 2.714 3.552 4.16 4.206 6.8 5.114a4.137 4.137 0 001.88.121 3.077 3.077 0 002.02-1.426 2.475 2.475 0 00.18-1.425c-.074-.135-.27-.21-.57-.345z"/><path data-name="Path 7" d="M21.232 4.092C13.543-3.341.818 2.05.812 12.536a11.836 11.836 0 001.6 5.945l-1.7 6.162 6.335-1.652a11.971 11.971 0 0017.665-10.448 11.794 11.794 0 00-3.495-8.411zm1.48 8.417a9.956 9.956 0 01-15.01 8.504l-.36-.214-3.75.975 1.005-3.645-.239-.375A9.918 9.918 0 0119.805 5.519a9.788 9.788 0 012.907 6.99z"/></g></svg>