<?xml version="1.0" encoding="utf-8"?><svg viewBox="0 0 49.5 54.011" xmlns="http://www.w3.org/2000/svg" xmlns:xlink="http://www.w3.org/1999/xlink"><style>:root>svg{display:none}:root>svg:target{display:block}</style><svg viewBox="0 0 49.5 54.011" id="viber" xmlns="http://www.w3.org/2000/svg"><g data-name="Group 1" fill="#fff" stroke="#fff" stroke-width="1.5"><path data-name="Path 1" d="M29.751.75h-10a19.018 19.018 0 00-19 19v9.01a19.032 19.032 0 0012 17.665v5.841a1 1 0 001.671.741l5.798-5.257h9.531a19.018 19.018 0 0019-19v-9.01a19.018 19.018 0 00-19-18.99zm17 28a17.016 17.016 0 01-17 17h-9.917a1 1 0 00-.671.259l-4.413 4v-4.282a1 1 0 00-.667-.942A17.031 17.031 0 012.75 28.75v-9.01A17.016 17.016 0 0119.749 2.75h10a17.016 17.016 0 0117 17z"/><path data-name="Path 2" d="M37.966 31.243L31.82 27.25a2.993 2.993 0 00-4.15.88l-.289.444c-2.66-.879-5.593-2-7.349-7.085l.727-.632h0a3 3 0 00.294-4.233l-4.808-5.53a1 1 0 00-1.411-.1l-3.019 2.625c-2.648 2.3-1.411 5.707-1 6.826a.994.994 0 00.066.145 45.694 45.694 0 006.661 8.786c4.065 4.141 11.4 7.965 11.629 8.076a5 5 0 006.916-1.47l2.178-3.354a1 1 0 00-.299-1.385zm-3.561 3.649a3.033 3.033 0 01-4.233.834c-.073-.038-7.364-3.835-11.207-7.75a44.639 44.639 0 01-6.3-8.291c-.792-2.221-.652-3.586.464-4.556l2.266-1.968 4.152 4.776a.989.989 0 01-.1 1.411l-1.227 1.066a1 1 0 00-.3 1.049c2.092 6.8 6.16 8.133 9.13 9.108l.433.143a1 1 0 001.155-.4l.709-1.092a.994.994 0 011.383-.291l5.308 3.447z"/><path data-name="Path 3" d="M27.033 16.997a1 1 0 10-.548 1.923 4.524 4.524 0 013.1 3.1 1 1 0 00.962.729 1.024 1.024 0 00.272-.037 1 1 0 00.691-1.234 6.538 6.538 0 00-4.477-4.481z"/><path data-name="Path 4" d="M34.643 22.969a1.024 1.024 0 00.272-.037 1 1 0 00.691-1.234 12.7 12.7 0 00-8.689-8.709 1 1 0 00-.547 1.924 10.685 10.685 0 017.311 7.328 1 1 0 00.962.728z"/><path data-name="Path 5" d="M26.486 8.332a1 1 0 00-.548 1.924 18.1 18.1 0 0112.388 12.416 1 1 0 00.962.729 1.024 1.024 0 00.272-.037 1 1 0 00.691-1.234A20.118 20.118 0 0026.486 8.332z"/></g></svg><svg viewBox="0 0 25.212 25.346" id="whatsapp" xmlns="http://www.w3.org/2000/svg"><g fill="#fff" stroke="#fff"><path data-name="Path 6" d="M18.219 14.95l-.009.075c-2.2-1.1-2.429-1.242-2.713-.816-.2.3-.771.964-.944 1.162s-.349.21-.646.075a8.116 8.116 0 01-2.4-1.485 9.073 9.073 0 01-1.66-2.07c-.293-.506.32-.578.878-1.634a.55.55 0 00-.025-.524c-.075-.15-.672-1.62-.922-2.206s-.487-.51-.672-.51a1.488 1.488 0 00-1.368.344c-1.614 1.774-1.207 3.6.174 5.55 2.714 3.552 4.16 4.206 6.8 5.114a4.137 4.137 0 001.88.121 3.077 3.077 0 002.02-1.426 2.475 2.475 0 00.18-1.425c-.074-.135-.27-.21-.57-.345z"/><path data-name="Path 7" d="M21.232 4.092C13.543-3.341.818 2.05.812 12.536a11.836 11.836 0 001.6 5.945l-1.7 6.162 6.335-1.652a11.971 11.971 0 0017.665-10.448 11.794 11.794 0 00-3.495-8.411zm1.48 8.417a9.956 9.956 0 01-15.01 8.504l-.36-.214-3.75.975 1.005-3.645-.239-.375A9.918 9.918 0 0119.805 5.519a9.788 9.788 0 012.907 6.99z"/></g></svg></svg>